<mxfile host="app.diagrams.net" modified="2023-11-02T10:14:25.229Z" agent="Mozilla/5.0 (Macintosh; Intel Mac OS X 10.15; rv:109.0) Gecko/20100101 Firefox/119.0" version="22.0.8" etag="5grwFDYVTEPOcfCOkYhf" type="github">
  <diagram name="Page-1" id="lnG2zAfyn-MAA1SeDjfi">
    <mxGraphModel>
      <root>
        <mxCell id="0" />
        <mxCell id="1" parent="0" />
      </root>
    </mxGraphModel>
  </diagram>
</mxfile>
